<svg xmlns="http://www.w3.org/2000/svg" xmlns:xlink="http://www.w3.org/1999/xlink" width="500" zoomAndPan="magnify" viewBox="0 0 375 374.999991" height="500" preserveAspectRatio="xMidYMid meet" version="1.0"><defs><g/></defs><g fill="#000000" fill-opacity="1"><g transform="translate(63.15173, 203.376391)"><g><path d="M 2.078125 -34.890625 L 2.078125 -48.21875 L 18.90625 -59.109375 L 25.296875 -59.109375 L 25.296875 0 L 11.828125 0 L 11.828125 -41.1875 Z M 2.078125 -34.890625 "/></g></g></g><g fill="#000000" fill-opacity="1"><g transform="translate(92.767345, 203.376391)"><g/></g></g><g fill="#000000" fill-opacity="1"><g transform="translate(112.323608, 203.376391)"><g/></g></g><g fill="#000000" fill-opacity="1"><g transform="translate(131.879871, 203.376391)"><g/></g></g><g fill="#000000" fill-opacity="1"><g transform="translate(151.464272, 203.376391)"><g><path d="M 26 -48.78125 C 24.09375 -48.78125 22.265625 -47.835938 20.515625 -45.953125 C 18.773438 -44.066406 17.5 -42.191406 16.6875 -40.328125 L 15.46875 -37.546875 L 4.234375 -42.984375 C 4.367188 -43.460938 4.601562 -44.082031 4.9375 -44.84375 C 5.269531 -45.613281 6.054688 -46.988281 7.296875 -48.96875 C 8.546875 -50.945312 9.921875 -52.6875 11.421875 -54.1875 C 12.929688 -55.695312 14.988281 -57.070312 17.59375 -58.3125 C 20.195312 -59.550781 23 -60.171875 26 -60.171875 C 29.875 -60.171875 33.253906 -59.679688 36.140625 -58.703125 C 39.035156 -57.722656 41.269531 -56.503906 42.84375 -55.046875 C 44.414062 -53.597656 45.691406 -51.878906 46.671875 -49.890625 C 47.648438 -47.910156 48.269531 -46.109375 48.53125 -44.484375 C 48.800781 -42.859375 48.9375 -41.164062 48.9375 -39.40625 C 48.9375 -36.820312 48.21875 -34.109375 46.78125 -31.265625 C 45.34375 -28.429688 43.609375 -25.898438 41.578125 -23.671875 C 39.554688 -21.453125 37.515625 -19.421875 35.453125 -17.578125 C 33.398438 -15.742188 31.660156 -14.328125 30.234375 -13.328125 L 28.078125 -11.828125 L 50 -11.828125 L 50 0 L 3.9375 0 L 3.9375 -3.359375 C 4.75 -4.035156 5.847656 -4.957031 7.234375 -6.125 C 8.617188 -7.289062 11.050781 -9.519531 14.53125 -12.8125 C 18.019531 -16.113281 21.101562 -19.207031 23.78125 -22.09375 C 26.457031 -24.988281 28.894531 -28.082031 31.09375 -31.375 C 33.289062 -34.675781 34.390625 -37.351562 34.390625 -39.40625 C 34.390625 -40.21875 34.304688 -41.03125 34.140625 -41.84375 C 33.972656 -42.65625 33.648438 -43.644531 33.171875 -44.8125 C 32.691406 -45.976562 31.832031 -46.929688 30.59375 -47.671875 C 29.351562 -48.410156 27.820312 -48.78125 26 -48.78125 Z M 26 -48.78125 "/></g></g></g><g fill="#000000" fill-opacity="1"><g transform="translate(205.428808, 203.376391)"><g/></g></g><g fill="#000000" fill-opacity="1"><g transform="translate(224.98507, 203.376391)"><g/></g></g><g fill="#000000" fill-opacity="1"><g transform="translate(244.541333, 203.376391)"><g/></g></g><g fill="#000000" fill-opacity="1"><g transform="translate(264.125735, 203.376391)"><g><path d="M 14.6875 -42.046875 L 4.078125 -47.21875 C 4.179688 -47.550781 4.328125 -48.015625 4.515625 -48.609375 C 4.703125 -49.203125 5.273438 -50.238281 6.234375 -51.71875 C 7.191406 -53.207031 8.3125 -54.523438 9.59375 -55.671875 C 10.882812 -56.816406 12.769531 -57.851562 15.25 -58.78125 C 17.738281 -59.707031 20.535156 -60.171875 23.640625 -60.171875 C 29.273438 -60.171875 33.921875 -58.554688 37.578125 -55.328125 C 41.234375 -52.109375 43.0625 -47.992188 43.0625 -42.984375 C 43.0625 -38.304688 41.316406 -34.601562 37.828125 -31.875 C 42.835938 -28.820312 45.34375 -24.3125 45.34375 -18.34375 C 45.34375 -12.707031 43.273438 -8.0625 39.140625 -4.40625 C 35.015625 -0.75 29.773438 1.078125 23.421875 1.078125 C 20.035156 1.078125 16.957031 0.578125 14.1875 -0.421875 C 11.414062 -1.429688 9.253906 -2.640625 7.703125 -4.046875 C 6.148438 -5.453125 4.859375 -6.867188 3.828125 -8.296875 C 2.804688 -9.734375 2.101562 -10.957031 1.71875 -11.96875 L 1.21875 -13.46875 L 13.6875 -19.5625 C 13.6875 -19.320312 13.71875 -19 13.78125 -18.59375 C 13.851562 -18.1875 14.101562 -17.457031 14.53125 -16.40625 C 14.96875 -15.351562 15.492188 -14.429688 16.109375 -13.640625 C 16.734375 -12.859375 17.675781 -12.144531 18.9375 -11.5 C 20.207031 -10.851562 21.679688 -10.53125 23.359375 -10.53125 C 25.890625 -10.53125 27.941406 -11.222656 29.515625 -12.609375 C 31.085938 -13.992188 31.875 -15.90625 31.875 -18.34375 C 31.875 -20.875 31.050781 -22.953125 29.40625 -24.578125 C 27.757812 -26.203125 25.742188 -27.015625 23.359375 -27.015625 L 20.78125 -26.578125 L 20.78125 -35.390625 L 23.71875 -35.390625 C 25.570312 -35.390625 27.21875 -36.101562 28.65625 -37.53125 C 30.09375 -38.96875 30.8125 -40.738281 30.8125 -42.84375 C 30.8125 -44.707031 30.082031 -46.257812 28.625 -47.5 C 27.164062 -48.738281 25.457031 -49.359375 23.5 -49.359375 C 22.113281 -49.359375 20.859375 -49.109375 19.734375 -48.609375 C 18.609375 -48.109375 17.75 -47.5 17.15625 -46.78125 C 16.5625 -46.0625 16.0625 -45.34375 15.65625 -44.625 C 15.25 -43.914062 15 -43.320312 14.90625 -42.84375 Z M 14.6875 -42.046875 "/></g></g></g></svg>